/* XPM */
static char *_771569edd5e42c6bee0628ffdf9f895nrN3Vhe8UaohQYHa[] = {
/* columns rows colors chars-per-pixel */
"64 64 237 2 ",
"   c None",
".  c #4A2C0E",
"X  c #4A2D13",
"o  c #49301B",
"O  c #58381B",
"+  c #582900",
"@  c #683A0B",
"#  c #683D16",
"$  c #612E00",
"%  c #523A23",
"&  c #593E26",
"*  c #6D4217",
"=  c #744414",
"-  c #7B4A16",
";  c #72451A",
":  c #7C4B1A",
">  c #7A4718",
",  c #7E5019",
"<  c #79460F",
"1  c #5D452C",
"2  c #66462A",
"3  c #7B4D23",
"4  c #744E2B",
"5  c #7E5124",
"6  c #7B542D",
"7  c #7F582D",
"8  c #795839",
"9  c #6D5237",
"0  c #765D49",
"q  c #6F5D4D",
"w  c #78624D",
"e  c #814E1C",
"r  c #86551C",
"t  c #945A1C",
"y  c #845423",
"u  c #8A5524",
"i  c #855825",
"p  c #8C5A24",
"a  c #82552B",
"s  c #86592C",
"d  c #8B5C2A",
"f  c #925D24",
"g  c #925E2B",
"h  c #995C25",
"j  c #8C5E32",
"k  c #815831",
"l  c #925F30",
"z  c #8D622D",
"x  c #9C6326",
"c  c #94622C",
"v  c #99642C",
"b  c #9B6B2D",
"n  c #946528",
"m  c #8E6334",
"M  c #86603B",
"N  c #8C653A",
"B  c #936333",
"V  c #9A6633",
"C  c #956933",
"Z  c #9C6B34",
"A  c #93653A",
"S  c #96693C",
"D  c #9C6C3B",
"F  c #9A653A",
"G  c #9C7133",
"H  c #9E713C",
"J  c #97733F",
"K  c #A1662B",
"L  c #A36A2E",
"P  c #AA6C2F",
"I  c #A26D35",
"U  c #A36E3A",
"Y  c #AB6F33",
"T  c #A47135",
"R  c #AB7333",
"E  c #A4733C",
"W  c #AA753C",
"Q  c #A57A3D",
"!  c #AC7A3D",
"~  c #A97937",
"^  c #B37B3C",
"/  c #896746",
"(  c #946B42",
")  c #9B6D42",
"_  c #906F4C",
"`  c #977145",
"'  c #9D7242",
"]  c #94724C",
"[  c #997754",
"{  c #8D7056",
"}  c #A47442",
"|  c #AA7642",
" . c #A67945",
".. c #AC7B43",
"X. c #A37549",
"o. c #A57B4B",
"O. c #AC7C4A",
"+. c #AA7748",
"@. c #B27C44",
"#. c #B27E4A",
"$. c #B57A45",
"%. c #A67D53",
"&. c #B37F52",
"*. c #8F7E6F",
"=. c #927B66",
"-. c #AE833F",
";. c #AC8145",
":. c #AE814D",
">. c #B38245",
",. c #BC8345",
"<. c #B3834C",
"1. c #BA864D",
"2. c #BC8A4C",
"3. c #B68A4A",
"4. c #BD914E",
"5. c #AB8354",
"6. c #AE8259",
"7. c #A98557",
"8. c #B38552",
"9. c #BA8653",
"0. c #B68955",
"q. c #BB8B53",
"w. c #B58A5C",
"e. c #BD8D5A",
"r. c #BA8758",
"t. c #BE9353",
"y. c #BD915C",
"u. c #B5945A",
"i. c #AF9153",
"p. c #9E8366",
"a. c #A78968",
"s. c #B98D63",
"d. c #B59462",
"f. c #BC9361",
"g. c #BB9C6A",
"h. c #B99769",
"j. c #A78C71",
"k. c #B69877",
"l. c #AF916B",
"z. c #C18C4B",
"x. c #C28649",
"c. c #C2914D",
"v. c #C18E54",
"b. c #C18E5C",
"n. c #C29355",
"m. c #C3935B",
"M. c #C9975C",
"N. c #C39A5D",
"B. c #CA9A5C",
"V. c #C99755",
"C. c #D29658",
"Z. c #CEA05D",
"A. c #D2A45D",
"S. c #C39561",
"D. c #C89661",
"F. c #C59A63",
"G. c #CC9C63",
"H. c #C69D69",
"J. c #CC9D6A",
"K. c #D19E62",
"L. c #D19F6A",
"P. c #C09F76",
"I. c #CDA364",
"U. c #C2A26D",
"Y. c #CCA46C",
"T. c #CDAA6A",
"R. c #D2A463",
"E. c #D3A46A",
"W. c #D5AA6C",
"Q. c #DAAA6B",
"!. c #DBAA67",
"~. c #DCB06B",
"^. c #CEAB74",
"/. c #CBAB7B",
"(. c #C9A576",
"). c #D4A774",
"_. c #D5AC72",
"`. c #D3AD7A",
"'. c #DDAE7A",
"]. c #DBB273",
"[. c #D4B27A",
"{. c #DBB47A",
"}. c #DBBA7C",
"|. c #E4B36E",
" X c #E1AF74",
".X c #E2B474",
"XX c #E2BB7A",
"oX c #E7B97A",
"OX c #E0AE6F",
"+X c #E8C37F",
"@X c #BEA387",
"#X c #CCAC82",
"$X c #C6A785",
"%X c #CCB487",
"&X c #DCBA86",
"*X c #DCBC8A",
"=X c #D6B587",
"-X c #CBB396",
";X c #DABE93",
":X c #D6BC99",
">X c #D2AF87",
",X c #E3BD83",
"<X c #EABD82",
"1X c #E2BF8D",
"2X c #D8C48D",
"3X c #DCC490",
"4X c #DBC79C",
"5X c #DBC494",
"6X c #E6C483",
"7X c #EAC383",
"8X c #E4C38D",
"9X c #EBC58B",
"0X c #EBCA89",
"qX c #F1CA8C",
"wX c #E3C494",
"eX c #EDCB93",
"rX c #EBCC9B",
"tX c #E4C896",
"yX c #F3CE94",
"uX c #F3CF9B",
"iX c #F3D396",
"pX c #F3D29B",
"aX c #F7D49B",
"sX c #EFD292",
"dX c #DBC4A3",
"fX c #D9C6A4",
"gX c #DDCEB4",
"hX c #EACCA2",
"jX c #E4CBA6",
"kX c #E5D0A6",
"lX c #F2D3A4",
"zX c #F7D7A9",
"xX c #E8CFB2",
"cX c #E7D4B4",
"vX c #F5DAB4",
"bX c #E9D9C4",
"nX c #F5E6CC",
/* pixels */
"                                                                                                                                ",
"                                                                                                                                ",
"                                                                                                                                ",
"                                                                                                                                ",
"                                                                                                                                ",
"                                                                                                                                ",
"                                                                                                                                ",
"                                                                                                                                ",
"                                                                                                                                ",
"                                                                bXnX    xXjXkXvX                                                ",
"                                                        dXkXvXhXtXlXrXpX}.i.y.}.^.&X%X#XvX                                      ",
"                                            gXfX4X4X3X3X*X8XpX8XeX8X6XT.;.G t.3.r Q C J 5.>XhX                                  ",
"                                        cXfX%X2X2XeX6X0XsXqXsX0X9X,X`.y.0.8.O.U y y +.; j 6.(.$XxX                              ",
"                                  kX4X#X%X3XrXtX0XiX0X6X0X6X7X0X9X).5.O.+.D : u : : X.B + a 6.o.7.:X                            ",
"                                tX1X&X^.wXyXpXiXiXpXpXeXpXeXpXpX,X:.m z i D &.X.F r.B B C d z C z ` %X                          ",
"                            cX:X*X9XyX,X,X}.aXaXpXrXlXpXlXrXwX=XY.:.z m S.} B y > y i D d , Z ..<.' ( k.                        ",
"                          *X/.[.9XaXqXyX7X0X6X9XeXrXlXzXlXrX8X(.y.f.8.H.O.C E } C } O.d C B +.D y d 3 A #X                      ",
"                        h.N._.qX9XyX0X7X].XX}.,XeXwXrXlXlXwX=X^.o.o.H.8.y.0.:.J.F.e.} D } y = = y y F F X.hX                    ",
"                      jXY.{.7XqXyXeX9X6X+X7X9XeX1XlXlXhXwXrX*X5.S 8.} f.' z ' ).} D D w.&.g : y 8.i : d d d.cX                  ",
"                    dX*X,X,X{.}.9X{.{.}.7X6X,X,X8XlXvXtXwXlX/.0.Y.' S.y } i H } i 5 ; } S.r.| b.D i u B | ` @X                  ",
"                  xX;X`.{.]._.].,X^.{.,X0XXX].[.&XzX;XwXlXrX&X^.H.S.8.:.' d s * @ = 5 j d S | F D e u y Q o.] dX                ",
"                  4X*X,X<X<X}.Y.Y.F.}.7X7X].W.[.eX*X(.lXlXwX8X^.D.G.H 0. .D 5 5 s X.) y : y C } D g g g v Q N l.kX              ",
"                  3X,XqX<XoXT.4.N.F.,X7X.X]._.{.9X5.`.uX,X&Xy.Y.G.m.:.d d j ' w.s.S # @ = : d | Z Q V g f W :.N %X              ",
"                %X}.~.oX.X.Xt.t.N.I.<XoXQ.W.E.Y.8.H.[.&XY.H.0.Y.W.>.d z > y 5 S s X.j s C d = d p c #.I L x #.} =X              ",
"              cX(.I.A..XE.R.E.W.I.B.].W.oXM.3.>.<.<Xy.{.N.q...W.n.p E :.0.m } ( a 6.) * B O.d : b f E 9.L L E T d.              ",
"              dX`.A.~.|.Q.B.E.Z.E.M.Q.Q.K.! >.>.q.W.M.W.Q >.p Q.<.c | B i O.f.m X.) A ) : = B y p c v U ,.Y Y T C #X            ",
"              ;XY.A.~.|.Q.Q.Q.B.n.R.OX!.v.T @...M.2.M.E.W W r K.....O.c d 8.s.s.s.j = S : @ V p r f | U L ^ K T G d.            ",
"              =X].A.A.~.V.R.B.B.>.Q.OXB.1.^ @.2.R.2.Q.M.1.b L 1.T :.:.D H e.).J.S.B d } +.d u d I b 9.g f R P x b d.            ",
"            hXY.B.c.Z.oXR.M.2.v.2.M.G.1...@.@.K.M.n..X>.>.b 2...g E d | 0.e.J.e.0.| <.E 9.8.U p Z M.} V f L x T b g.-X          ",
"            =Xt.n.z.R.V.4.1.v.n.n.<.n...v <.v.M.M.1.E.>.1.T @.Z c +.d e.m.O.O.S.<.<.O.c 8.e.e.Z b m.+.} | x t L ~ u.            ",
"          vXH.1.2.c.R.-.>.>.$.T q.>.n.Q v <.M.q.B.t.n.n.1.! I u d g } | > i Z Z <...E E 8.V F >.>...S O.| ,.K t b u.            ",
"          jXy.2.V.z.n.>.4.2.W E v.q.q.W T ..m.M...n.>.v.@.@.>.v g y | - $ v C d E I Z g i y d E q...c F U $.x.x n U.            ",
"          ;Xu.n.>.R ! t.4.>.@.2.v.B.W q...1.<.q.W E T >.E n.Q.v Q U +.r < v T Z T I r f - e E Z Z E C c Z @.9.@.H U.            ",
"          :XF.3.^ ^ v.V.>.V...@.@.....v.W ....v.@...I W T G.M.f >.Z <.v p ! v I @.| V f r : i i r ..T n L I | m. .g.            ",
"          -X:.! ,.,.! >.>.t.I @.<...n.v...<.! >.q.n.q.<...M.e.Q ..Z E V I ..v f 2...@.W q.Q Z  .....T T @.I $.m.;.d.            ",
"          dX:.2.x.C.T ..I.3.U #...T <.<.W ..T q.G.q...W 3.n.m...| T @.Z ..v v v E @.q.M.J.E.8.e.3.Q T ! ! f $.9.T u.            ",
"          dXw.z.,.C.@. .m.:.| <.@.| q.q.Z ..e.M.G.>.Z C Z 8.S.E <.Z 1.I @.I f T 1.1.E  XL.oXq.e.<.q.>.>.,.f W U n d.            ",
"            w.>.x.x.n.e.y.S.<.1...Z 3.M.T >.G.q.q.q... ., | e.D Q | 1.T T ..Z W v.>.v e.0.G.D.y.G...H E I t K v Q U.            ",
"            h.1.^ R n.m.H.0.E ..#.d ..E.m.8.D.m.0.q.8.<.= E :.Z Z 1.v.<.Z Z W 1.Q v.n.Z T <.).e.H d >.1.! K h I q.U.xX          ",
"            (...x.z.M. .f.C Z 1.| #.D.0.m.e.D.m.m.>.8. .= D <.8.q.Q >.@.W v v 2.I q.e.T D E  .C B } G.! R $.f @.;.d.fX          ",
"            >X+.,.,.v.:.f.S.n.>.>.0.D.8.8.>.e.S.m.:.F. .> } S.O.e.| >.....T @.1.q.<.3.Q <.Z d z B y.E.Q R ^ x I v h.            ",
"              6...! >.>.y.S.m.T C e.<.>.e.:.<.e.<.8.y.0.} H } :.T W m.W <.1.n.q.1.m.E.v - c D D | Y.8.3.3.L | | H g.            ",
"              l. ...2.>.8...m.I.q.m.D  .y.e.<.e.e.S.O.8.Y.z O.8.E | D.I Q ..q.m.e.e 9.J.<.8. .E F.m...T 2.n.<.O.o.;X            ",
"              $X7.;.3.1.e.| | G._.q.>.0.<.3.<.e.S.y.e.y.0.H C m.| V 0.C p c | b.L.d | G.m.<.d d V O.T ..2.2.9.} o.5X            ",
"              gX$X5...I | | C H S.| m.D.3.O.O. .0.8.m.J.m.+.d | | g O.D i c D | e.D | O.Z E B > g +.v G.3.T | ) d.              ",
"                dX7...@.@.| C z O.+.q.e.m.<.q.| <.0.O.e.'. .E B <.V Z  .} U T T H O.Z D D B y e O.U c B.>.M.} %./.              ",
"                  P.} @.$.@. . .H | q.<.q.#.q.<.O.q. .8.0.8.H | #.} d D 8. .<.:.Z c i B i d D } <.| ! V.T >.D ( =X              ",
"                    5.| 9.| Q ;.D p |  .9.<.| D O.0.D  .H O. .c } 9.d y +.} 8.| D : = C D S +.+.} c ..~ b ..5.a.                ",
"                    -X[ 8...! T T i D 8.}  .+.S :.0.:.:.'  .8.0.:.O.) : i y B C d j D ' X.A a 3 +.U m.1.n G 5.$X                ",
"                      k.%.| x L 1.D D } D E <.8.O.D +.S.H 0. .J.O.e.+.D d } g S l e ; B ) j * 3 w.} b.9.C 8.h.                  ",
"                        [ m | U v.E u c I Z I | T c E 1.Z g Z #.D.S.q.D B B y g V e d #.+.} } } 0.9.0.e C ` :X                  ",
"                        j.M m O.O.E c Z | | | W U e Z W | p v E 9.1.1.+.| V p I | U E p d  .q.g c Z Z @ k l.                    ",
"                          j./ k s d d d l D S y V F u U +.U I g U D | U @.Z I ..V U U u g p c c p Q B 7 [                       ",
"                              { 2 * 4 7 6 k 6 ; 3 5 j s S 8.B D D } &.B } D E | +.O.+.E +.+.V - C } ` _                         ",
"                                  w % . o 1 X . X . O O 4 4 8 _ 7 N %.( ) w.) X.} a B } ' D } B o.N a.@X                        ",
"                                            *.*.q w q o % 1 0 & X . / O 8 [ k _ M # 4 6 M 6 M 6 M [ -X                          ",
"                                                                      =.0 % o % 9 2 & 9 { p.a.j.                                ",
"                                                                                                                                ",
"                                                                                                                                ",
"                                                                                                                                ",
"                                                                                                                                ",
"                                                                                                                                ",
"                                                                                                                                ",
"                                                                                                                                "
};
