/* XPM */
static char *ce087ad34c4a438c8c3e25489fd5138e[] = {
/* columns rows colors chars-per-pixel */
"32 32 26 1 ",
"  c #000002",
". c #D5B16B",
"X c #D5AF69",
"o c #180B34",
"O c #D4AC67",
"+ c #D6B36E",
"@ c #211340",
"# c #6E5886",
"$ c #1E0D4F",
"% c #CAA870",
"& c #C3A06F",
"* c #0D0038",
"= c #3C2A63",
"- c #130632",
"; c #291C49",
": c #180B39",
"> c #36255E",
", c #D2A861",
"< c #5A4688",
"1 c #554183",
"2 c #03000D",
"3 c #4F3B7D",
"4 c #715B7B",
"5 c #715C7C",
"6 c #7A6383",
"7 c #180944",
/* pixels */
"XX.XXXX++...OXO,,,OXXX+..XX++..X",
"OOXXXOX+....XO,,,,OOX.++.X.++.XO",
"OOOOOOO.+%%%%&&&&&&&%%%.+..+..OO",
",,OOOOOX&6############6&...++.XO",
",OOOOOX&4;@@@@@@@@@@@@;4&X.....O",
"OOXXXX&5;oooo------oooo;4&OOOX.X",
"OXXXX&5;ooo-:>====>:-ooo;4&OOOXX",
"X.XX&5;ooo:>=1<<<<1=>:ooo;4&XXXX",
".XX&4;ooo:=11$$$$$$11=:ooo;4&...",
"..%6;ooo:=3$7******7$3=:ooo;6%+.",
"++%#@oo:=3$*2      2*$3=:oo@#%+.",
"X.%#@o->3$*2        2*$3>-o@#%++",
"..%#@o:>$*2          2*$>:o@#%++",
"..%#@->1$*            *$1>-@#%X.",
"OX%#@-=<$*            *$<=-@#&,,",
",O%#@-=<$*            *$<=-@#&,,",
",O&#@-=<$*            *$<=-@#%O,",
"XO&#@-=<$*            *$<=-@#%O.",
"XX%#@-=<$*            *$<=-@#%X.",
"X.%#@->1$*            *$1>-@#%+.",
"X.%#@o:>$*2          2*$>:o@#%+.",
"XX%#@o->3$*2        2*$3>-o@#%+X",
"XX%#@oo:=3$*2      2*$3=:oo@#%.X",
"XO%6;ooo:=3$7******7$3=:ooo;6%..",
"XXO&4;ooo:=11$$$$$$11=:ooo;5&X+.",
"OXOO&4;ooo:>=1<<<<1=>:ooo;5&X...",
"XXXOO&5;ooo-:>====>:-ooo;5&++...",
"X.....&5;oooo------oooo;5&+++.XO",
".+.++XX&5;@@@@@@@@@@@@;4&X.++.XO",
"X...+XX+%6############6&XOX...XO",
"O..++XX+++%%%&&&&&&%%%%.XO...+.O",
"OX...X.+++++.XO,,OXXX.++XX...+XX"
};
